<svg id="visual" viewBox="0 0 900 600" width="900" height="600" xmlns="http://www.w3.org/2000/svg" xmlns:xlink="http://www.w3.org/1999/xlink" version="1.1"><rect x="0" y="0" width="900" height="600" fill="#00233e"></rect><defs><linearGradient id="grad1_0" x1="33.3%" y1="0%" x2="100%" y2="100%"><stop offset="20%" stop-color="#00233e" stop-opacity="1"></stop><stop offset="80%" stop-color="#00233e" stop-opacity="1"></stop></linearGradient></defs><defs><linearGradient id="grad2_0" x1="0%" y1="0%" x2="66.7%" y2="100%"><stop offset="20%" stop-color="#00233e" stop-opacity="1"></stop><stop offset="80%" stop-color="#00233e" stop-opacity="1"></stop></linearGradient></defs><g transform="translate(900, 0)"><path d="M0 405.6C-31.6 390.1 -63.2 374.6 -98.9 369C-134.5 363.4 -174.1 367.7 -202.8 351.3C-231.5 334.9 -249.3 297.7 -267.3 267.3C-285.3 236.8 -303.5 213.1 -324.8 187.5C-346.1 161.9 -370.4 134.6 -384.4 103C-398.4 71.5 -402 35.7 -405.6 0L0 0Z" fill="#e86800"></path></g><g transform="translate(0, 600)"><path d="M0 -405.6C33.6 -398.2 67.3 -390.8 103 -384.4C138.7 -378 176.6 -372.7 202.8 -351.3C229 -329.9 243.7 -292.5 264.5 -264.5C285.2 -236.4 312.1 -217.8 333.4 -192.5C354.7 -167.2 370.4 -135.4 381.5 -102.2C392.6 -69.1 399.1 -34.5 405.6 0L0 0Z" fill="#e86800"></path></g></svg>